<svg width="537" height="565" viewBox="0 0 537 565" fill="none" xmlns="http://www.w3.org/2000/svg">
<path d="M330.989 397.351C331.932 397.351 332.876 396.988 333.529 396.262C334.981 394.811 334.981 392.561 333.529 391.11L297.242 354.823C295.79 353.371 293.541 353.371 292.089 354.823C290.638 356.274 290.638 358.524 292.089 359.975L328.376 396.262C329.102 396.988 330.045 397.351 330.989 397.351Z" fill="#F2726C"/>
<path d="M330.992 397.352C333.025 397.352 334.621 395.755 334.621 393.723C334.621 388.135 339.121 383.635 344.709 383.635C350.297 383.635 354.797 388.135 354.797 393.723C354.797 395.755 356.393 397.352 358.425 397.352C360.458 397.352 362.054 395.755 362.054 393.723C362.054 384.144 354.289 376.378 344.709 376.378C335.129 376.378 327.364 384.144 327.364 393.723C327.364 395.755 328.96 397.352 330.992 397.352Z" fill="#F2726C"/>
<path d="M197.02 372.896V535.534C197.02 542.647 199.561 549.251 203.842 554.331C205.874 556.799 208.342 558.976 211.1 560.645C213.35 562.024 215.745 563.113 218.285 563.838C220.607 564.492 223.002 564.927 225.542 565C225.832 565 226.195 565 226.486 565C242.67 565 255.951 551.718 255.951 535.534V372.896C255.951 356.639 242.67 343.43 226.486 343.43C218.357 343.43 211.027 346.769 205.657 352.067C200.359 357.437 197.02 364.767 197.02 372.896Z" fill="#222433"/>
<g opacity="0.5">
<path opacity="0.5" d="M203.848 373.983V554.33C205.88 556.798 208.347 558.975 211.105 560.644V373.983H203.848Z" fill="url(#paint0_linear_130_127)"/>
</g>
<path opacity="0.5" d="M218.283 373.984V563.838C220.605 564.491 223 564.926 225.54 564.999V373.984H218.283Z" fill="url(#paint1_linear_130_127)"/>
<path d="M226.483 550.483C245.57 550.483 261.028 534.952 261.028 515.938C261.028 513.906 259.432 512.309 257.4 512.309C255.368 512.309 253.771 513.906 253.771 515.938C253.771 531.033 241.506 543.226 226.483 543.226C211.388 543.226 199.195 530.961 199.195 515.938C199.195 513.906 197.598 512.309 195.566 512.309C193.534 512.309 191.938 513.906 191.938 515.938C191.938 534.952 207.469 550.483 226.483 550.483Z" fill="#32535D"/>
<path d="M226.483 528.567C245.57 528.567 261.028 513.036 261.028 494.022C261.028 491.99 259.432 490.393 257.4 490.393C255.368 490.393 253.771 491.99 253.771 494.022C253.771 509.117 241.506 521.31 226.483 521.31C211.388 521.31 199.195 509.045 199.195 494.022C199.195 491.99 197.598 490.393 195.566 490.393C193.534 490.393 191.938 491.99 191.938 494.022C191.938 513.036 207.469 528.567 226.483 528.567Z" fill="#32535D"/>
<path d="M197.021 392.925C269.16 392.925 371.562 320.206 381.94 231.81C392.754 139.931 326.784 70.623 254.209 70.623V203.942C254.209 232.318 248.984 260.477 238.606 286.894L197.021 392.925Z" fill="#222433"/>
<path d="M326.202 304.749C323.517 310.772 318.945 315.417 313.429 318.102C311.76 312.224 312.05 305.692 314.736 299.668C317.421 293.645 321.993 289 327.509 286.315C329.178 292.193 328.815 298.652 326.202 304.749Z" fill="url(#paint2_linear_130_127)"/>
<path d="M291.583 304.749C288.898 310.772 284.326 315.417 278.81 318.102C277.141 312.224 277.432 305.692 280.117 299.668C282.802 293.645 287.374 289 292.89 286.315C294.559 292.193 294.269 298.652 291.583 304.749Z" fill="url(#paint3_linear_130_127)"/>
<path d="M301.598 326.522C298.912 332.545 294.34 337.19 288.825 339.875C287.155 333.997 287.446 327.465 290.131 321.442C292.816 315.418 297.388 310.773 302.904 308.088C304.573 313.966 304.283 320.426 301.598 326.522Z" fill="url(#paint4_linear_130_127)"/>
<path d="M184.026 326.518C184.026 330.074 184.099 333.63 184.389 337.186C184.897 345.532 185.985 353.878 187.655 362.152C187.945 363.531 188.235 364.91 188.526 366.289C189.106 368.756 197.235 392.706 197.017 392.923C226.264 370.353 248.617 338.347 258.85 299.883C259.431 297.633 260.011 295.384 260.519 293.061C262.696 283.554 264.148 273.684 264.801 263.596C266.543 238.34 263.422 212.213 254.205 189.715C251.955 191.457 249.706 193.272 247.456 195.159C221.184 217.149 199.412 245.888 189.905 281.377C187.727 289.505 186.131 297.778 185.187 306.125C184.389 312.946 184.026 319.696 184.026 326.518Z" fill="#25386D"/>
<path d="M184.026 326.518C184.026 330.074 184.099 333.63 184.389 337.186C184.897 345.532 185.985 353.878 187.655 362.152C187.945 363.531 188.235 364.91 188.526 366.289C189.106 368.756 197.235 392.706 197.017 392.923C226.264 370.353 248.617 338.347 258.85 299.883C259.431 297.633 260.011 295.384 260.519 293.061C262.696 283.554 264.148 273.684 264.801 263.596C266.543 238.34 263.422 212.213 254.205 189.715C251.955 191.457 249.706 193.272 247.456 195.159C221.184 217.149 199.412 245.888 189.905 281.377C187.727 289.505 186.131 297.778 185.187 306.125C184.389 312.946 184.026 319.696 184.026 326.518Z" fill="#222433" fill-opacity="0.3"/>
<path d="M185.188 306.127C212.476 283.774 233.305 252.93 243.103 216.207C243.683 213.957 244.264 211.708 244.772 209.385C245.86 204.74 246.731 199.951 247.457 195.088C221.185 217.078 199.413 245.817 189.906 281.306C187.728 289.507 186.132 297.781 185.188 306.127Z" fill="url(#paint5_linear_130_127)"/>
<path d="M363.724 198.717C363.724 231.085 339.194 257.284 308.93 257.284C278.667 257.284 254.137 231.085 254.137 198.717V81.5096C315.171 81.5096 363.724 133.981 363.724 198.717Z" fill="#F26C74"/>
<path d="M254.207 81.5096V170.486C254.207 195.088 271.117 214.974 292.018 214.974C312.919 214.974 329.829 195.016 329.829 170.486C329.829 122.949 298.477 84.1223 258.416 81.5822C256.965 81.5822 255.586 81.5096 254.207 81.5096Z" fill="#F8EA8C"/>
<path d="M277.071 131.731C266.77 131.731 258.419 123.38 258.419 113.079C258.419 102.778 266.77 94.4276 277.071 94.4276C287.372 94.4276 295.722 102.778 295.722 113.079C295.722 123.38 287.372 131.731 277.071 131.731Z" fill="#43A3A8"/>
<path d="M277.071 122.806C271.701 122.806 267.347 118.452 267.347 113.081C267.347 107.71 271.701 103.356 277.071 103.356C282.442 103.356 286.796 107.71 286.796 113.081C286.796 118.452 282.442 122.806 277.071 122.806Z" fill="url(#paint6_linear_130_127)"/>
<path d="M89.9745 115.909C103.691 116.853 114.577 127.957 115.23 141.673C126.407 138.19 138.236 136.375 150.501 136.375H254.21V70.623H168.21C157.977 70.623 148.106 72.2923 138.962 75.4855C118.206 82.5978 100.788 97.1126 89.9745 115.909Z" fill="#F8EA8C"/>
<path d="M108.626 160.833H254.21V136.375H150.574C138.309 136.375 126.479 138.19 115.303 141.673C115.303 142.109 115.303 142.544 115.303 143.052C115.303 149.801 112.763 156.115 108.626 160.833Z" fill="#F26A6C"/>
<path d="M235.047 70.623H254.207V136.375H235.047V70.623Z" fill="url(#paint7_linear_130_127)"/>
<path d="M235.047 136.375H254.207V160.905H235.047V136.375Z" fill="black"/>
<path d="M77.9999 160.833C89.0312 152.415 101.659 145.811 115.23 141.601C114.577 127.812 103.691 116.781 89.9746 115.837C82.3544 129.119 77.9999 144.504 77.9999 160.833Z" fill="#25316D"/>
<path d="M77.9999 160.834H108.554C111.602 157.351 113.779 153.069 114.722 148.351C115.085 146.61 115.23 144.868 115.23 142.981C115.23 142.546 115.23 142.11 115.23 141.602C101.659 145.884 89.1038 152.416 77.9999 160.834Z" fill="#222433"/>
<path opacity="0.7" d="M200.43 136.375H235.048V70.623H196.294C198.108 78.1708 199.777 86.8071 200.721 96.3869C202.245 111.773 201.664 125.344 200.43 136.375Z" fill="url(#paint8_linear_130_127)"/>
<mask id="mask0_130_127" style="mask-type:alpha" maskUnits="userSpaceOnUse" x="269" y="106" width="13" height="13">
<path d="M275.836 118.233C272.509 118.233 269.813 115.537 269.813 112.21C269.813 108.883 272.509 106.186 275.836 106.186C279.163 106.186 281.86 108.883 281.86 112.21C281.86 115.537 279.163 118.233 275.836 118.233Z" fill="url(#paint9_linear_130_127)"/>
</mask>
<g mask="url(#mask0_130_127)">
<path d="M275.835 118.231C272.508 118.231 269.811 115.534 269.811 112.208C269.811 108.881 272.508 106.184 275.835 106.184C279.162 106.184 281.858 108.881 281.858 112.208C281.858 115.534 279.162 118.231 275.835 118.231Z" fill="url(#paint10_linear_130_127)"/>
</g>
<path d="M278.447 397.352C279.391 397.352 280.334 396.989 280.988 396.263C282.439 394.812 282.439 392.562 280.988 391.11L256.82 366.943C255.369 365.492 253.119 365.492 251.668 366.943C250.216 368.395 250.216 370.644 251.668 372.096L275.835 396.263C276.561 396.989 277.504 397.352 278.447 397.352Z" fill="#F2726C"/>
<path d="M278.447 397.353C280.479 397.353 282.075 395.756 282.075 393.724C282.075 388.136 286.575 383.636 292.163 383.636C297.751 383.636 302.251 388.136 302.251 393.724C302.251 395.756 303.848 397.353 305.88 397.353C307.912 397.353 309.508 395.756 309.508 393.724C309.508 384.144 301.743 376.379 292.163 376.379C282.583 376.379 274.818 384.144 274.818 393.724C274.818 395.756 276.414 397.353 278.447 397.353Z" fill="#F2726C"/>
<path d="M120.78 401.998H429.946C432.922 401.998 435.389 399.531 435.389 396.555C435.389 393.579 432.922 391.112 429.946 391.112H120.78C117.804 391.112 115.337 393.579 115.337 396.555C115.337 399.531 117.804 401.998 120.78 401.998Z" fill="#A86E58"/>
<path d="M305.807 397.353C307.839 397.353 309.436 395.757 309.436 393.725C309.436 384.145 301.67 376.379 292.09 376.379C290.058 376.379 288.462 377.976 288.462 380.008C288.462 382.04 290.058 383.637 292.09 383.637C297.679 383.637 302.178 388.136 302.178 393.725C302.178 395.757 303.847 397.353 305.807 397.353Z" fill="#F2726C"/>
<path d="M358.348 397.356C360.38 397.356 361.977 395.76 361.977 393.727C361.977 384.148 354.211 376.382 344.631 376.382C342.599 376.382 341.003 377.979 341.003 380.011C341.003 382.043 342.599 383.64 344.631 383.64C350.22 383.64 354.719 388.139 354.719 393.727C354.719 395.76 356.388 397.356 358.348 397.356Z" fill="#F2726C"/>
<path d="M343.113 48.5843C343.113 48.5843 357.814 42.5906 362.232 30.276C366.65 17.9614 359.113 3.98922 359.113 3.98922C359.113 3.98922 344.413 9.98295 339.995 22.2975C335.576 34.6121 343.113 48.5843 343.113 48.5843Z" fill="#F2726C"/>
<path d="M435.606 229.266C435.606 229.266 447.486 241.798 462.014 241.679C476.541 241.56 488.215 228.835 488.215 228.835C488.215 228.835 476.335 216.303 461.807 216.422C447.28 216.541 435.606 229.266 435.606 229.266Z" fill="#FAA881"/>
<path d="M394.544 383.779C394.544 383.779 410.233 386.255 421.032 378.051C431.831 369.847 433.651 354.069 433.651 354.069C433.651 354.069 417.963 351.592 407.164 359.796C396.364 368 394.544 383.779 394.544 383.779Z" fill="#7675FD"/>
<path d="M355.964 406.708C355.964 406.708 353.385 417.915 358.801 425.931C364.217 433.948 375.577 435.739 375.577 435.739C375.577 435.739 378.155 424.532 372.739 416.516C367.323 408.499 355.964 406.708 355.964 406.708Z" fill="#43A3A8"/>
<path d="M412.341 99.0473C412.341 99.0473 450.293 106.809 480.942 88.8278C511.592 70.8467 523.334 33.932 523.334 33.932C523.334 33.932 485.382 26.1703 454.733 44.1514C424.083 62.1325 412.341 99.0473 412.341 99.0473Z" fill="#7675FD"/>
<mask id="mask1_130_127" style="mask-type:alpha" maskUnits="userSpaceOnUse" x="0" y="216" width="216" height="255">
<path d="M0 246C0 229.431 13.4315 216 30 216H186C202.569 216 216 229.431 216 246V440.118C216 456.686 202.569 470.118 186 470.118H30C13.4315 470.118 0 456.686 0 440.118V246Z" fill="#C4C4C4"/>
</mask>
<g mask="url(#mask1_130_127)">
<rect x="-15.0879" y="197.735" width="241.412" height="285.882" fill="#FAA881"/>
<path d="M10.2042 398.959C-59.3613 416.133 -128.706 377.227 -144.79 312.076C-160.875 246.925 -117.604 180.216 -48.0386 163.042L203.864 100.853C236.302 232.248 149.335 364.611 10.2042 398.959Z" fill="#F26C74"/>
<path d="M236.804 445.79C277.359 504.863 265.342 583.463 210.018 621.445C154.694 659.426 77.0255 642.397 36.4705 583.324L-110.382 369.416C1.19416 292.816 155.694 327.644 236.804 445.79Z" fill="#7675FD"/>
</g>
<path d="M30.602 434.373H50.682V428.813H39.882C44.522 425.253 50.242 420.133 50.242 413.733C50.242 408.813 47.282 404.933 40.642 404.933C35.322 404.933 30.722 407.973 30.522 415.053H37.122C37.122 412.293 38.322 410.693 40.362 410.693C42.442 410.693 43.402 412.053 43.402 414.173C43.402 419.093 36.802 424.173 30.602 429.293V434.373ZM54.7336 426.213C55.0536 430.693 58.1336 434.893 64.4936 434.893C72.3336 434.893 74.6536 429.373 74.6536 419.413C74.6536 410.533 72.3336 404.893 64.0136 404.893C57.8136 404.893 53.9736 408.733 53.9736 414.653C53.9736 420.853 57.8136 423.973 62.8136 423.973C65.2936 423.973 67.4536 423.013 68.6136 421.373C68.6136 426.933 67.6136 429.373 64.7336 429.373C62.6136 429.373 61.4536 428.253 61.0536 426.213H54.7336ZM64.3736 418.573C61.6936 418.573 60.4136 416.933 60.4136 414.733C60.4136 412.293 61.8536 410.773 64.2136 410.773C66.5336 410.773 68.0536 412.173 68.0536 414.773C68.0536 417.133 66.6136 418.573 64.3736 418.573ZM90.0195 434.773H97.1395V405.573H86.0595V411.933H90.0195V434.773ZM101.579 434.373H121.659V428.813H110.859C115.499 425.253 121.219 420.133 121.219 413.733C121.219 408.813 118.259 404.933 111.619 404.933C106.299 404.933 101.699 407.973 101.499 415.053H108.099C108.099 412.293 109.299 410.693 111.339 410.693C113.419 410.693 114.379 412.053 114.379 414.173C114.379 419.093 107.779 424.173 101.579 429.293V434.373ZM129.47 419.093C126.67 420.413 125.03 422.893 125.03 426.213C125.03 432.053 129.87 435.333 135.83 435.333C141.79 435.333 146.63 432.053 146.63 426.213C146.63 422.893 144.99 420.453 142.15 419.093C144.35 417.933 145.91 415.813 145.91 412.813C145.91 408.653 142.71 404.973 135.83 404.973C128.95 404.973 125.71 408.653 125.71 412.813C125.71 415.893 127.23 417.893 129.47 419.093ZM135.83 417.253C133.87 417.253 132.39 416.013 132.39 413.893C132.39 411.653 133.79 410.413 135.83 410.413C137.87 410.413 139.27 411.653 139.27 413.853C139.27 415.973 137.79 417.253 135.83 417.253ZM135.83 422.053C138.27 422.053 139.95 423.493 139.95 425.893C139.95 428.053 138.43 429.733 135.83 429.733C133.19 429.733 131.63 428.093 131.63 425.893C131.63 423.413 133.39 422.053 135.83 422.053Z" fill="white"/>
<path d="M29.972 395.361H32.537V389.031L34.907 395.361H36.977L39.332 389.046V395.361H41.897V384.831H38.882L35.957 392.121L33.002 384.831H29.972V395.361ZM47.4315 388.926C48.2865 388.926 49.0065 389.451 49.0065 390.366H45.7965C45.9465 389.436 46.5915 388.926 47.4315 388.926ZM51.4365 392.586H48.7065C48.4965 393.036 48.0915 393.396 47.3715 393.396C46.5465 393.396 45.8715 392.886 45.7815 391.791H51.5865C51.6165 391.536 51.6315 391.281 51.6315 391.041C51.6315 388.491 49.9065 386.871 47.4615 386.871C44.9715 386.871 43.2315 388.521 43.2315 391.176C43.2315 393.831 45.0015 395.481 47.4615 395.481C49.5465 395.481 51.0315 394.221 51.4365 392.586ZM64.5197 395.361H67.0697V390.471C67.0697 388.221 65.7347 386.901 63.6647 386.901C62.4497 386.901 61.3997 387.576 60.8447 388.461C60.2747 387.456 59.2547 386.901 57.9947 386.901C56.8997 386.901 56.0447 387.366 55.5497 388.041V386.991H52.9847V395.361H55.5497V390.816C55.5497 389.721 56.1797 389.121 57.1547 389.121C58.1297 389.121 58.7597 389.721 58.7597 390.816V395.361H61.3097V390.816C61.3097 389.721 61.9397 389.121 62.9147 389.121C63.8897 389.121 64.5197 389.721 64.5197 390.816V395.361ZM71.4286 388.176V384.261H68.8636V395.361H71.4286V394.191C71.8936 394.926 72.7786 395.481 74.0086 395.481C76.0636 395.481 77.6986 393.801 77.6986 391.161C77.6986 388.521 76.0786 386.871 74.0086 386.871C72.8086 386.871 71.8936 387.426 71.4286 388.176ZM75.0886 391.161C75.0886 392.496 74.2186 393.246 73.2436 393.246C72.2836 393.246 71.4136 392.511 71.4136 391.176C71.4136 389.841 72.2836 389.106 73.2436 389.106C74.2186 389.106 75.0886 389.826 75.0886 391.161ZM82.7343 388.926C83.5893 388.926 84.3093 389.451 84.3093 390.366H81.0993C81.2493 389.436 81.8943 388.926 82.7343 388.926ZM86.7393 392.586H84.0093C83.7993 393.036 83.3943 393.396 82.6743 393.396C81.8493 393.396 81.1743 392.886 81.0843 391.791H86.8893C86.9193 391.536 86.9343 391.281 86.9343 391.041C86.9343 388.491 85.2093 386.871 82.7643 386.871C80.2743 386.871 78.5343 388.521 78.5343 391.176C78.5343 393.831 80.3043 395.481 82.7643 395.481C84.8493 395.481 86.3343 394.221 86.7393 392.586ZM90.8524 391.476C90.8524 390.036 91.5574 389.616 92.7724 389.616H93.4774V386.901C92.3524 386.901 91.4374 387.501 90.8524 388.386V386.991H88.2874V395.361H90.8524V391.476ZM101.498 392.931C101.453 389.811 96.9234 390.756 96.9234 389.421C96.9234 389.016 97.2534 388.776 97.8534 388.776C98.5734 388.776 99.0084 389.151 99.0834 389.721H101.453C101.288 388.071 100.088 386.871 97.9284 386.871C95.7384 386.871 94.5234 388.041 94.5234 389.466C94.5234 392.541 99.0834 391.566 99.0834 392.916C99.0834 393.291 98.7384 393.591 98.0784 393.591C97.3734 393.591 96.8484 393.201 96.7884 392.616H94.2534C94.3734 394.236 95.8734 395.481 98.1084 395.481C100.208 395.481 101.498 394.386 101.498 392.931Z" fill="white"/>
<path d="M60.353 268.584C58.434 260.135 56.4526 251.395 44.1672 251.395C35.8275 251.395 29.042 258.235 29.042 266.642V289.513H51.7298V283.795H53.6204C55.7058 283.795 57.4017 282.085 57.4017 279.983V274.266H61.7143C61.7143 274.266 60.5988 269.676 60.353 268.584ZM44.1672 274.243C44.1672 274.243 36.6046 268.7 36.6046 264.591C36.6046 260.69 42.4864 258.994 44.1672 264.119C45.848 258.996 51.7298 260.69 51.7298 264.591C51.7298 268.7 44.1672 274.243 44.1672 274.243Z" fill="white"/>
<defs>
<linearGradient id="paint0_linear_130_127" x1="207.462" y1="555.917" x2="207.462" y2="394.218" gradientUnits="userSpaceOnUse">
<stop stop-color="#24C667"/>
<stop offset="1" stop-color="#244C6B"/>
</linearGradient>
<linearGradient id="paint1_linear_130_127" x1="221.911" y1="601.15" x2="221.911" y2="420.93" gradientUnits="userSpaceOnUse">
<stop stop-color="#24C667"/>
<stop offset="1" stop-color="#244C6B"/>
</linearGradient>
<linearGradient id="paint2_linear_130_127" x1="310.711" y1="324.123" x2="324.005" y2="294.104" gradientUnits="userSpaceOnUse">
<stop offset="0.5313" stop-color="#244C6B"/>
<stop offset="1" stop-color="#24236D"/>
</linearGradient>
<linearGradient id="paint3_linear_130_127" x1="276.1" y1="324.123" x2="289.394" y2="294.104" gradientUnits="userSpaceOnUse">
<stop offset="0.5313" stop-color="#244C6B"/>
<stop offset="1" stop-color="#24236D"/>
</linearGradient>
<linearGradient id="paint4_linear_130_127" x1="286.17" y1="345.879" x2="299.464" y2="315.861" gradientUnits="userSpaceOnUse">
<stop offset="0.5313" stop-color="#244C6B"/>
<stop offset="1" stop-color="#24236D"/>
</linearGradient>
<linearGradient id="paint5_linear_130_127" x1="257.171" y1="164.387" x2="200.563" y2="282.683" gradientUnits="userSpaceOnUse">
<stop stop-color="#7675FD"/>
<stop offset="1" stop-color="#244C6B"/>
</linearGradient>
<linearGradient id="paint6_linear_130_127" x1="282.355" y1="120.18" x2="271.348" y2="105.302" gradientUnits="userSpaceOnUse">
<stop/>
<stop offset="1" stop-color="#24236D"/>
</linearGradient>
<linearGradient id="paint7_linear_130_127" x1="244.616" y1="133.424" x2="244.616" y2="73.9053" gradientUnits="userSpaceOnUse">
<stop stop-color="#24236D"/>
<stop offset="1" stop-color="#244C6B"/>
</linearGradient>
<linearGradient id="paint8_linear_130_127" x1="215.642" y1="134.875" x2="215.642" y2="79.0651" gradientUnits="userSpaceOnUse">
<stop stop-color="#EE2A7B"/>
<stop offset="1" stop-color="#F15665"/>
</linearGradient>
<linearGradient id="paint9_linear_130_127" x1="277.609" y1="117.007" x2="273.977" y2="107.32" gradientUnits="userSpaceOnUse">
<stop offset="0.00386639"/>
<stop offset="0.9994" stop-color="white"/>
</linearGradient>
<linearGradient id="paint10_linear_130_127" x1="277.608" y1="117.004" x2="273.975" y2="107.317" gradientUnits="userSpaceOnUse">
<stop offset="0.00386639"/>
<stop offset="0.9994" stop-color="#C6C6FF"/>
</linearGradient>
</defs>
</svg>
