<svg width="512" height="619" viewBox="0 0 512 619" fill="none" xmlns="http://www.w3.org/2000/svg">
<path d="M305.994 397.351C306.937 397.351 307.881 396.988 308.534 396.262C309.985 394.811 309.985 392.561 308.534 391.11L272.247 354.823C270.795 353.371 268.546 353.371 267.094 354.823C265.643 356.274 265.643 358.524 267.094 359.975L303.381 396.262C304.107 396.988 305.05 397.351 305.994 397.351Z" fill="#F2726C"/>
<path d="M305.997 397.352C308.029 397.352 309.626 395.755 309.626 393.723C309.626 388.135 314.126 383.635 319.714 383.635C325.302 383.635 329.802 388.135 329.802 393.723C329.802 395.755 331.398 397.352 333.43 397.352C335.462 397.352 337.059 395.755 337.059 393.723C337.059 384.143 329.294 376.378 319.714 376.378C310.134 376.378 302.369 384.143 302.369 393.723C302.369 395.755 303.965 397.352 305.997 397.352Z" fill="#F2726C"/>
<path d="M172.025 372.896V535.534C172.025 542.647 174.565 549.251 178.847 554.331C180.879 556.799 183.347 558.976 186.105 560.645C188.354 562.024 190.749 563.113 193.29 563.838C195.612 564.492 198.007 564.927 200.547 565C200.837 565 201.2 565 201.49 565C217.674 565 230.956 551.718 230.956 535.534V372.896C230.956 356.639 217.674 343.43 201.49 343.43C193.362 343.43 186.032 346.769 180.662 352.067C175.364 357.437 172.025 364.767 172.025 372.896Z" fill="#222433"/>
<g opacity="0.5">
<path opacity="0.5" d="M178.852 373.983V554.33C180.885 556.798 183.352 558.975 186.11 560.644V373.983H178.852Z" fill="url(#paint0_linear_23_124)"/>
</g>
<path opacity="0.5" d="M193.287 373.984V563.838C195.61 564.491 198.005 564.926 200.545 564.999V373.984H193.287Z" fill="url(#paint1_linear_23_124)"/>
<path d="M201.488 550.483C220.575 550.483 236.033 534.952 236.033 515.938C236.033 513.906 234.437 512.309 232.404 512.309C230.372 512.309 228.776 513.906 228.776 515.938C228.776 531.033 216.511 543.226 201.488 543.226C186.392 543.226 174.2 530.961 174.2 515.938C174.2 513.906 172.603 512.309 170.571 512.309C168.539 512.309 166.943 513.906 166.943 515.938C166.943 534.952 182.473 550.483 201.488 550.483Z" fill="#32535D"/>
<path d="M201.488 528.567C220.575 528.567 236.033 513.036 236.033 494.022C236.033 491.99 234.437 490.393 232.404 490.393C230.372 490.393 228.776 491.99 228.776 494.022C228.776 509.117 216.511 521.31 201.488 521.31C186.392 521.31 174.2 509.045 174.2 494.022C174.2 491.99 172.603 490.393 170.571 490.393C168.539 490.393 166.943 491.99 166.943 494.022C166.943 513.036 182.473 528.567 201.488 528.567Z" fill="#32535D"/>
<path d="M172.026 392.925C244.164 392.925 346.567 320.206 356.945 231.81C367.758 139.931 301.788 70.623 229.214 70.623V203.942C229.214 232.318 223.989 260.477 213.611 286.894L172.026 392.925Z" fill="#222433"/>
<path d="M301.207 304.749C298.522 310.772 293.95 315.417 288.434 318.102C286.765 312.224 287.055 305.692 289.741 299.668C292.426 293.645 296.998 289 302.514 286.315C304.183 292.193 303.82 298.652 301.207 304.749Z" fill="url(#paint2_linear_23_124)"/>
<path d="M266.588 304.749C263.903 310.772 259.331 315.417 253.815 318.102C252.146 312.224 252.436 305.692 255.122 299.668C257.807 293.645 262.379 289 267.895 286.315C269.564 292.193 269.274 298.652 266.588 304.749Z" fill="url(#paint3_linear_23_124)"/>
<path d="M276.603 326.522C273.917 332.545 269.345 337.19 263.829 339.875C262.16 333.997 262.451 327.465 265.136 321.442C267.821 315.418 272.393 310.773 277.909 308.088C279.578 313.966 279.288 320.426 276.603 326.522Z" fill="url(#paint4_linear_23_124)"/>
<path d="M159.031 326.518C159.031 330.074 159.103 333.63 159.394 337.186C159.902 345.532 160.99 353.878 162.66 362.152C162.95 363.531 163.24 364.91 163.53 366.289C164.111 368.756 172.239 392.706 172.022 392.923C201.269 370.353 223.622 338.347 233.855 299.883C234.436 297.633 235.016 295.384 235.524 293.061C237.701 283.554 239.153 273.684 239.806 263.596C241.548 238.34 238.427 212.213 229.21 189.715C226.96 191.457 224.711 193.272 222.461 195.159C196.189 217.149 174.417 245.888 164.909 281.377C162.732 289.505 161.136 297.778 160.192 306.125C159.394 312.947 159.031 319.696 159.031 326.518Z" fill="#25386D"/>
<path d="M159.031 326.518C159.031 330.074 159.103 333.63 159.394 337.186C159.902 345.532 160.99 353.878 162.66 362.152C162.95 363.531 163.24 364.91 163.53 366.289C164.111 368.756 172.239 392.706 172.022 392.923C201.269 370.353 223.622 338.347 233.855 299.883C234.436 297.633 235.016 295.384 235.524 293.061C237.701 283.554 239.153 273.684 239.806 263.596C241.548 238.34 238.427 212.213 229.21 189.715C226.96 191.457 224.711 193.272 222.461 195.159C196.189 217.149 174.417 245.888 164.909 281.377C162.732 289.505 161.136 297.778 160.192 306.125C159.394 312.947 159.031 319.696 159.031 326.518Z" fill="#222433" fill-opacity="0.3"/>
<path d="M160.193 306.127C187.481 283.774 208.31 252.93 218.107 216.207C218.688 213.957 219.269 211.708 219.777 209.385C220.865 204.74 221.736 199.951 222.462 195.088C196.19 217.078 174.418 245.817 164.911 281.306C162.733 289.507 161.137 297.781 160.193 306.127Z" fill="url(#paint5_linear_23_124)"/>
<path d="M338.729 198.717C338.729 231.085 314.198 257.284 283.935 257.284C253.672 257.284 229.141 231.085 229.141 198.717V81.5096C290.176 81.5096 338.729 133.981 338.729 198.717Z" fill="#F26C74"/>
<path d="M229.212 81.5096V170.486C229.212 195.088 246.121 214.974 267.023 214.974C287.924 214.974 304.834 195.016 304.834 170.486C304.834 122.949 273.482 84.1223 233.421 81.5822C231.969 81.5822 230.591 81.5096 229.212 81.5096Z" fill="#F8EA8C"/>
<path d="M252.075 131.731C241.774 131.731 233.424 123.38 233.424 113.079C233.424 102.778 241.774 94.4276 252.075 94.4276C262.376 94.4276 270.727 102.778 270.727 113.079C270.727 123.38 262.376 131.731 252.075 131.731Z" fill="#43A3A8"/>
<path d="M252.076 122.806C246.705 122.806 242.351 118.452 242.351 113.081C242.351 107.71 246.705 103.356 252.076 103.356C257.447 103.356 261.801 107.71 261.801 113.081C261.801 118.452 257.447 122.806 252.076 122.806Z" fill="url(#paint6_linear_23_124)"/>
<path d="M64.9794 115.909C78.6959 116.853 89.582 127.957 90.2352 141.673C101.412 138.19 113.241 136.375 125.506 136.375H229.215V70.623H143.214C132.981 70.623 123.111 72.2923 113.967 75.4855C93.2107 82.5978 75.7929 97.1126 64.9794 115.909Z" fill="#F8EA8C"/>
<path d="M83.6309 160.833H229.215V136.375H125.579C113.314 136.375 101.484 138.19 90.3078 141.673C90.3078 142.109 90.3078 142.544 90.3078 143.052C90.3078 149.801 87.7677 156.115 83.6309 160.833Z" fill="#F26A6C"/>
<path d="M210.052 70.623H229.212V136.375H210.052V70.623Z" fill="url(#paint7_linear_23_124)"/>
<path d="M210.052 136.375H229.212V160.905H210.052V136.375Z" fill="black"/>
<path d="M53.0048 160.833C64.0361 152.415 76.664 145.811 90.2354 141.601C89.5822 127.812 78.6961 116.781 64.9795 115.837C57.3592 129.119 53.0048 144.504 53.0048 160.833Z" fill="#25316D"/>
<path d="M53.0048 160.834H83.5585C86.6066 157.351 88.7839 153.069 89.7273 148.351C90.0902 146.61 90.2354 144.868 90.2354 142.981C90.2354 142.546 90.2354 142.11 90.2354 141.602C76.664 145.884 64.1086 152.416 53.0048 160.834Z" fill="#222433"/>
<path opacity="0.7" d="M175.435 136.375H210.053V70.623H171.299C173.113 78.1708 174.782 86.8071 175.726 96.3869C177.25 111.773 176.669 125.344 175.435 136.375Z" fill="url(#paint8_linear_23_124)"/>
<mask id="mask0_23_124" style="mask-type:alpha" maskUnits="userSpaceOnUse" x="244" y="106" width="13" height="13">
<path d="M250.841 118.233C247.514 118.233 244.817 115.537 244.817 112.21C244.817 108.883 247.514 106.186 250.841 106.186C254.168 106.186 256.865 108.883 256.865 112.21C256.865 115.537 254.168 118.233 250.841 118.233Z" fill="url(#paint9_linear_23_124)"/>
</mask>
<g mask="url(#mask0_23_124)">
<path d="M250.84 118.231C247.513 118.231 244.816 115.534 244.816 112.208C244.816 108.881 247.513 106.184 250.84 106.184C254.166 106.184 256.863 108.881 256.863 112.208C256.863 115.534 254.166 118.231 250.84 118.231Z" fill="url(#paint10_linear_23_124)"/>
</g>
<path d="M253.452 397.352C254.396 397.352 255.339 396.989 255.992 396.263C257.444 394.812 257.444 392.562 255.992 391.11L231.825 366.943C230.374 365.492 228.124 365.492 226.672 366.943C225.221 368.395 225.221 370.644 226.672 372.096L250.84 396.263C251.565 396.989 252.509 397.352 253.452 397.352Z" fill="#F2726C"/>
<path d="M253.451 397.353C255.483 397.353 257.08 395.756 257.08 393.724C257.08 388.136 261.58 383.636 267.168 383.636C272.756 383.636 277.256 388.136 277.256 393.724C277.256 395.756 278.852 397.353 280.884 397.353C282.917 397.353 284.513 395.756 284.513 393.724C284.513 384.144 276.748 376.379 267.168 376.379C257.588 376.379 249.823 384.144 249.823 393.724C249.823 395.756 251.419 397.353 253.451 397.353Z" fill="#F2726C"/>
<path d="M95.7847 401.998H404.951C407.927 401.998 410.394 399.531 410.394 396.555C410.394 393.579 407.927 391.112 404.951 391.112H95.7847C92.8092 391.112 90.3417 393.579 90.3417 396.555C90.3417 399.531 92.8092 401.998 95.7847 401.998Z" fill="#A86E58"/>
<path d="M280.812 397.353C282.844 397.353 284.44 395.757 284.44 393.725C284.44 384.145 276.675 376.379 267.095 376.379C265.063 376.379 263.466 377.976 263.466 380.008C263.466 382.04 265.063 383.637 267.095 383.637C272.683 383.637 277.183 388.136 277.183 393.725C277.183 395.757 278.852 397.353 280.812 397.353Z" fill="#F2726C"/>
<path d="M333.353 397.356C335.385 397.356 336.981 395.76 336.981 393.727C336.981 384.148 329.216 376.382 319.636 376.382C317.604 376.382 316.007 377.979 316.007 380.011C316.007 382.043 317.604 383.64 319.636 383.64C325.224 383.64 329.724 388.139 329.724 393.727C329.724 395.76 331.393 397.356 333.353 397.356Z" fill="#F2726C"/>
<path d="M318.118 48.5843C318.118 48.5843 332.819 42.5906 337.237 30.276C341.655 17.9614 334.118 3.98922 334.118 3.98922C334.118 3.98922 319.418 9.98295 314.999 22.2975C310.581 34.6121 318.118 48.5843 318.118 48.5843Z" fill="#F2726C"/>
<path d="M410.611 229.266C410.611 229.266 422.491 241.798 437.019 241.679C451.546 241.56 463.22 228.835 463.22 228.835C463.22 228.835 451.34 216.303 436.812 216.422C422.284 216.541 410.611 229.266 410.611 229.266Z" fill="#FAA881"/>
<path d="M369.549 383.779C369.549 383.779 385.237 386.255 396.037 378.051C406.836 369.847 408.656 354.069 408.656 354.069C408.656 354.069 392.968 351.592 382.168 359.796C371.369 368 369.549 383.779 369.549 383.779Z" fill="#7675FD"/>
<path d="M330.968 406.708C330.968 406.708 328.39 417.915 333.806 425.931C339.222 433.948 350.582 435.739 350.582 435.739C350.582 435.739 353.16 424.532 347.744 416.516C342.328 408.499 330.968 406.708 330.968 406.708Z" fill="#43A3A8"/>
<path d="M387.346 99.0473C387.346 99.0473 425.297 106.809 455.947 88.8278C486.597 70.8467 498.339 33.932 498.339 33.932C498.339 33.932 460.387 26.1703 429.737 44.1514C399.088 62.1325 387.346 99.0473 387.346 99.0473Z" fill="#7675FD"/>
<mask id="mask1_23_124" style="mask-type:alpha" maskUnits="userSpaceOnUse" x="0" y="299" width="272" height="320">
<path d="M0 349C0 321.386 22.3858 299 50 299H222C249.614 299 272 321.386 272 349V569C272 596.614 249.614 619 222 619H50C22.3858 619 0 596.614 0 569V349Z" fill="#C4C4C4"/>
</mask>
<g mask="url(#mask1_23_124)">
<rect x="-19" y="276" width="304" height="360" fill="#FAA881"/>
<path d="M12.8504 529.393C-74.7507 551.02 -162.074 502.026 -182.328 419.985C-202.582 337.943 -148.094 253.939 -60.4925 232.312L256.718 154C297.566 319.46 188.053 486.139 12.8504 529.393Z" fill="#F26C74"/>
<path d="M298.197 588.365C349.266 662.753 334.134 761.732 264.467 809.56C194.8 857.388 96.9947 835.944 45.9254 761.556L-139 492.191C1.5034 395.731 196.059 439.589 298.197 588.365Z" fill="#7675FD"/>
</g>
<path d="M34.184 566.44H62.296V558.656H47.176C53.672 553.672 61.68 546.504 61.68 537.544C61.68 530.656 57.536 525.224 48.24 525.224C40.792 525.224 34.352 529.48 34.072 539.392H43.312C43.312 535.528 44.992 533.288 47.848 533.288C50.76 533.288 52.104 535.192 52.104 538.16C52.104 545.048 42.864 552.16 34.184 559.328V566.44ZM67.9682 555.016C68.4162 561.288 72.7282 567.168 81.6322 567.168C92.6082 567.168 95.8562 559.44 95.8562 545.496C95.8562 533.064 92.6082 525.168 80.9602 525.168C72.2802 525.168 66.9042 530.544 66.9042 538.832C66.9042 547.512 72.2802 551.88 79.2802 551.88C82.7522 551.88 85.7762 550.536 87.4002 548.24C87.4002 556.024 86.0002 559.44 81.9682 559.44C79.0002 559.44 77.3762 557.872 76.8162 555.016H67.9682ZM81.4642 544.32C77.7122 544.32 75.9202 542.024 75.9202 538.944C75.9202 535.528 77.9362 533.4 81.2402 533.4C84.4882 533.4 86.6162 535.36 86.6162 539C86.6162 542.304 84.6002 544.32 81.4642 544.32ZM117.369 567H127.337V526.12H111.825V535.024H117.369V567ZM133.551 566.44H161.663V558.656H146.543C153.039 553.672 161.047 546.504 161.047 537.544C161.047 530.656 156.903 525.224 147.607 525.224C140.159 525.224 133.719 529.48 133.439 539.392H142.679C142.679 535.528 144.359 533.288 147.215 533.288C150.127 533.288 151.471 535.192 151.471 538.16C151.471 545.048 142.231 552.16 133.551 559.328V566.44ZM172.599 545.048C168.679 546.896 166.383 550.368 166.383 555.016C166.383 563.192 173.159 567.784 181.503 567.784C189.847 567.784 196.623 563.192 196.623 555.016C196.623 550.368 194.327 546.952 190.351 545.048C193.431 543.424 195.615 540.456 195.615 536.256C195.615 530.432 191.135 525.28 181.503 525.28C171.871 525.28 167.335 530.432 167.335 536.256C167.335 540.568 169.463 543.368 172.599 545.048ZM181.503 542.472C178.759 542.472 176.687 540.736 176.687 537.768C176.687 534.632 178.647 532.896 181.503 532.896C184.359 532.896 186.319 534.632 186.319 537.712C186.319 540.68 184.247 542.472 181.503 542.472ZM181.503 549.192C184.919 549.192 187.271 551.208 187.271 554.568C187.271 557.592 185.143 559.944 181.503 559.944C177.807 559.944 175.623 557.648 175.623 554.568C175.623 551.096 178.087 549.192 181.503 549.192Z" fill="white"/>
<path d="M33.24 500H36.66V491.56L39.82 500H42.58L45.72 491.58V500H49.14V485.96H45.12L41.22 495.68L37.28 485.96H33.24V500ZM56.5194 491.42C57.6594 491.42 58.6194 492.12 58.6194 493.34H54.3394C54.5394 492.1 55.3994 491.42 56.5194 491.42ZM61.8594 496.3H58.2194C57.9394 496.9 57.3994 497.38 56.4394 497.38C55.3394 497.38 54.4394 496.7 54.3194 495.24H62.0594C62.0994 494.9 62.1194 494.56 62.1194 494.24C62.1194 490.84 59.8194 488.68 56.5594 488.68C53.2394 488.68 50.9194 490.88 50.9194 494.42C50.9194 497.96 53.2794 500.16 56.5594 500.16C59.3394 500.16 61.3194 498.48 61.8594 496.3ZM79.3036 500H82.7036V493.48C82.7036 490.48 80.9236 488.72 78.1636 488.72C76.5436 488.72 75.1436 489.62 74.4036 490.8C73.6436 489.46 72.2836 488.72 70.6036 488.72C69.1436 488.72 68.0036 489.34 67.3436 490.24V488.84H63.9236V500H67.3436V493.94C67.3436 492.48 68.1836 491.68 69.4836 491.68C70.7836 491.68 71.6236 492.48 71.6236 493.94V500H75.0236V493.94C75.0236 492.48 75.8636 491.68 77.1636 491.68C78.4636 491.68 79.3036 492.48 79.3036 493.94V500ZM88.5155 490.42V485.2H85.0955V500H88.5155V498.44C89.1355 499.42 90.3155 500.16 91.9555 500.16C94.6955 500.16 96.8755 497.92 96.8755 494.4C96.8755 490.88 94.7155 488.68 91.9555 488.68C90.3555 488.68 89.1355 489.42 88.5155 490.42ZM93.3955 494.4C93.3955 496.18 92.2355 497.18 90.9355 497.18C89.6555 497.18 88.4955 496.2 88.4955 494.42C88.4955 492.64 89.6555 491.66 90.9355 491.66C92.2355 491.66 93.3955 492.62 93.3955 494.4ZM103.59 491.42C104.73 491.42 105.69 492.12 105.69 493.34H101.41C101.61 492.1 102.47 491.42 103.59 491.42ZM108.93 496.3H105.29C105.01 496.9 104.47 497.38 103.51 497.38C102.41 497.38 101.51 496.7 101.39 495.24H109.13C109.17 494.9 109.19 494.56 109.19 494.24C109.19 490.84 106.89 488.68 103.63 488.68C100.31 488.68 97.9897 490.88 97.9897 494.42C97.9897 497.96 100.35 500.16 103.63 500.16C106.41 500.16 108.39 498.48 108.93 496.3ZM114.414 494.82C114.414 492.9 115.354 492.34 116.974 492.34H117.914V488.72C116.414 488.72 115.194 489.52 114.414 490.7V488.84H110.994V500H114.414V494.82ZM128.609 496.76C128.549 492.6 122.509 493.86 122.509 492.08C122.509 491.54 122.949 491.22 123.749 491.22C124.709 491.22 125.289 491.72 125.389 492.48H128.549C128.329 490.28 126.729 488.68 123.849 488.68C120.929 488.68 119.309 490.24 119.309 492.14C119.309 496.24 125.389 494.94 125.389 496.74C125.389 497.24 124.929 497.64 124.049 497.64C123.109 497.64 122.409 497.12 122.329 496.34H118.949C119.109 498.5 121.109 500.16 124.089 500.16C126.889 500.16 128.609 498.7 128.609 496.76Z" fill="white"/>
<path d="M78.0001 356.253C75.1808 343.841 72.2699 331 54.2209 331C41.9689 331 32 341.049 32 353.4V387H65.3314V378.6H68.109C71.1727 378.6 73.6643 376.088 73.6643 373V364.6H80C80 364.6 78.3612 357.858 78.0001 356.253ZM54.2209 364.566C54.2209 364.566 43.1105 356.424 43.1105 350.387C43.1105 344.656 51.7516 342.164 54.2209 349.693C56.6902 342.166 65.3314 344.656 65.3314 350.387C65.3314 356.424 54.2209 364.566 54.2209 364.566Z" fill="white"/>
<defs>
<linearGradient id="paint0_linear_23_124" x1="182.467" y1="555.917" x2="182.467" y2="394.218" gradientUnits="userSpaceOnUse">
<stop stop-color="#24C667"/>
<stop offset="1" stop-color="#244C6B"/>
</linearGradient>
<linearGradient id="paint1_linear_23_124" x1="196.916" y1="601.15" x2="196.916" y2="420.93" gradientUnits="userSpaceOnUse">
<stop stop-color="#24C667"/>
<stop offset="1" stop-color="#244C6B"/>
</linearGradient>
<linearGradient id="paint2_linear_23_124" x1="285.716" y1="324.123" x2="299.01" y2="294.104" gradientUnits="userSpaceOnUse">
<stop offset="0.5313" stop-color="#244C6B"/>
<stop offset="1" stop-color="#24236D"/>
</linearGradient>
<linearGradient id="paint3_linear_23_124" x1="251.105" y1="324.123" x2="264.399" y2="294.104" gradientUnits="userSpaceOnUse">
<stop offset="0.5313" stop-color="#244C6B"/>
<stop offset="1" stop-color="#24236D"/>
</linearGradient>
<linearGradient id="paint4_linear_23_124" x1="261.175" y1="345.879" x2="274.469" y2="315.861" gradientUnits="userSpaceOnUse">
<stop offset="0.5313" stop-color="#244C6B"/>
<stop offset="1" stop-color="#24236D"/>
</linearGradient>
<linearGradient id="paint5_linear_23_124" x1="232.176" y1="164.387" x2="175.568" y2="282.683" gradientUnits="userSpaceOnUse">
<stop stop-color="#7675FD"/>
<stop offset="1" stop-color="#244C6B"/>
</linearGradient>
<linearGradient id="paint6_linear_23_124" x1="257.36" y1="120.18" x2="246.353" y2="105.302" gradientUnits="userSpaceOnUse">
<stop/>
<stop offset="1" stop-color="#24236D"/>
</linearGradient>
<linearGradient id="paint7_linear_23_124" x1="219.621" y1="133.424" x2="219.621" y2="73.9053" gradientUnits="userSpaceOnUse">
<stop stop-color="#24236D"/>
<stop offset="1" stop-color="#244C6B"/>
</linearGradient>
<linearGradient id="paint8_linear_23_124" x1="190.647" y1="134.875" x2="190.647" y2="79.0651" gradientUnits="userSpaceOnUse">
<stop stop-color="#EE2A7B"/>
<stop offset="1" stop-color="#F15665"/>
</linearGradient>
<linearGradient id="paint9_linear_23_124" x1="252.614" y1="117.007" x2="248.982" y2="107.32" gradientUnits="userSpaceOnUse">
<stop offset="0.00386639"/>
<stop offset="0.9994" stop-color="white"/>
</linearGradient>
<linearGradient id="paint10_linear_23_124" x1="252.613" y1="117.004" x2="248.98" y2="107.317" gradientUnits="userSpaceOnUse">
<stop offset="0.00386639"/>
<stop offset="0.9994" stop-color="#C6C6FF"/>
</linearGradient>
</defs>
</svg>
